<?xml version="1.0" encoding="UTF-8" standalone="no"?>
<!-- Created with Inkscape (http://www.inkscape.org/) -->

<svg
   xmlns:dc="http://purl.org/dc/elements/1.1/"
   xmlns:cc="http://creativecommons.org/ns#"
   xmlns:rdf="http://www.w3.org/1999/02/22-rdf-syntax-ns#"
   xmlns:svg="http://www.w3.org/2000/svg"
   xmlns="http://www.w3.org/2000/svg"
   xmlns:sodipodi="http://sodipodi.sourceforge.net/DTD/sodipodi-0.dtd"
   xmlns:inkscape="http://www.inkscape.org/namespaces/inkscape"
   id="svg3355"
   version="1.1"
   inkscape:version="0.91 r13725"
   xml:space="preserve"
   width="900"
   height="900"
   viewBox="0 0 900 900"
   sodipodi:docname="CHSHgraph.svg"><metadata
     id="metadata3361"><rdf:RDF><cc:Work
         rdf:about=""><dc:format>image/svg+xml</dc:format><dc:type
           rdf:resource="http://purl.org/dc/dcmitype/StillImage" /><dc:title></dc:title></cc:Work></rdf:RDF></metadata><defs
     id="defs3359"><clipPath
       clipPathUnits="userSpaceOnUse"
       id="clipPath3369"><path
         d="M 0,720 720,720 720,0 0,0 0,720 Z"
         id="path3371"
         inkscape:connector-curvature="0" /></clipPath></defs><sodipodi:namedview
     pagecolor="#ffffff"
     bordercolor="#666666"
     borderopacity="1"
     objecttolerance="10"
     gridtolerance="10"
     guidetolerance="10"
     inkscape:pageopacity="0"
     inkscape:pageshadow="2"
     inkscape:window-width="1855"
     inkscape:window-height="1056"
     id="namedview3357"
     showgrid="false"
     inkscape:zoom="1.0211111"
     inkscape:cx="489.77395"
     inkscape:cy="451.00852"
     inkscape:window-x="65"
     inkscape:window-y="24"
     inkscape:window-maximized="1"
     inkscape:current-layer="g3363" /><g
     id="g3363"
     inkscape:groupmode="layer"
     inkscape:label="pdf jacked"
     transform="matrix(1.25,0,0,-1.25,0,900)"><g
       id="g3365"><g
         id="g3367"
         clip-path="url(#clipPath3369)"><g
           id="g3373"
           transform="translate(540.0742,256.5005)"><path
             d="m 0,0 c -15.613,-0.001 -30.119,-4.704 -42.222,-12.737 -0.289,0.195 -0.509,0.455 -0.816,0.632 -1.455,0.84 -3.007,1.305 -4.578,1.602 l 0,234.192 c 13.071,-10.423 29.6,-16.694 47.616,-16.695 15.826,0.001 30.528,4.811 42.73,13.047 0.27,-0.18 0.474,-0.422 0.759,-0.586 1.501,-0.869 3.107,-1.335 4.729,-1.624 l 0,-234.977 C 35.058,-6.438 18.285,-0.001 0,0 m 71.375,-76.484 c -0.001,-14.274 -4.233,-27.529 -11.449,-38.681 -0.612,0.503 -1.178,1.048 -1.886,1.457 l 0,0 c -1.497,0.866 -3.097,1.331 -4.713,1.621 l 0,82.922 c 11.195,-12.608 18.047,-29.134 18.048,-47.319 m -119.299,-52.778 84.518,0 c 0.495,-2.377 1.587,-4.587 3.202,-6.47 -11.371,-7.655 -25.055,-12.126 -39.796,-12.126 -18.479,0.001 -35.244,7.077 -47.924,18.596 m -246.353,5.109 c -0.302,1.983 -0.96,3.875 -2.041,5.586 7.979,12.076 12.652,26.528 12.653,42.083 -10e-4,18.262 -6.423,35.013 -17.106,48.165 l 236.37,0 c 0.382,-1.488 1.058,-2.877 1.893,-4.184 -8.775,-12.448 -13.975,-27.595 -13.976,-43.981 10e-4,-18.039 6.286,-34.59 16.735,-47.669 l -234.528,0 z m -113.793,-5.109 85.348,0 c 0.463,-2.221 1.467,-4.279 2.91,-6.081 -11.479,-7.884 -25.355,-12.515 -40.335,-12.515 -18.478,0.001 -35.243,7.077 -47.923,18.596 m -23.453,52.778 c 0.001,15.111 4.724,29.092 12.734,40.629 0.611,-0.502 1.176,-1.047 1.882,-1.455 1.327,-0.767 2.736,-1.235 4.164,-1.548 l 0,-85.75 c -11.63,12.702 -18.779,29.549 -18.78,48.124 m 18.78,408.09 0,-85.4 c -2.284,-0.503 -4.399,-1.578 -6.223,-3.118 -7.909,11.49 -12.556,25.386 -12.557,40.391 0.001,18.577 7.15,35.423 18.78,48.127 m 92.77,10.856 c -0.394,-0.511 -0.85,-0.954 -1.181,-1.527 -0.761,-1.316 -1.229,-2.712 -1.544,-4.127 l -84.771,0 c 12.608,11.196 29.136,18.047 47.322,18.049 14.908,-0.001 28.728,-4.58 40.174,-12.395 m 367.293,-5.654 -83.49,0 c -0.509,2.284 -1.589,4.4 -3.137,6.221 11.276,7.46 24.769,11.827 39.307,11.828 18.185,-0.002 34.713,-6.853 47.32,-18.049 m -94.936,-106.05 83.995,0 c 0.231,-2.528 1.113,-4.931 2.591,-7.029 C 27.761,216.4 14.396,212.104 0,212.104 c -18.329,10e-4 -34.973,6.962 -47.616,18.315 l 0,0.339 z m -252.34,-345.485 c -0.448,0.333 -0.824,0.733 -1.319,1.019 -1.713,0.991 -3.559,1.473 -5.415,1.712 l 0,82.688 c 11.118,-12.59 17.915,-29.062 17.917,-47.176 -0.002,-14.091 -4.137,-27.182 -11.183,-38.243 m -95.315,91.518 c -0.272,2.577 -1.22,5.013 -2.785,7.121 10.993,6.917 23.957,10.978 37.909,10.978 18.212,-10e-4 34.762,-6.873 47.376,-18.099 l -82.5,0 z m -6.897,242.819 c 12.064,-7.954 26.492,-12.615 42.021,-12.616 18.343,0.001 35.169,6.475 48.348,17.245 l 0,-241.483 c -13.179,10.769 -30.005,17.243 -48.348,17.244 -15.418,-0.001 -29.745,-4.604 -41.756,-12.454 -0.163,0.103 -0.282,0.25 -0.451,0.349 l 0,0 c -1.671,0.965 -3.47,1.442 -5.28,1.694 l 0,228.171 c 1.926,0.271 3.785,0.844 5.466,1.85 m 102.07,102.348 c 7.136,-11.11 11.323,-24.289 11.325,-38.479 -0.002,-18.114 -6.799,-34.586 -17.917,-47.175 l 0,83.041 c 2.378,0.311 4.621,1.193 6.592,2.613 m -96.929,-97.179 c 1.09,1.888 1.602,3.933 1.784,5.979 l 83.081,0 c -12.687,-11.554 -29.477,-18.653 -47.985,-18.654 -14.032,0 -27.068,4.104 -38.101,11.096 0.41,0.526 0.879,0.986 1.221,1.579 m 333.956,101.93 c -8.448,-12.302 -13.412,-27.182 -13.413,-43.23 10e-4,-18.013 6.27,-34.542 16.692,-47.612 l -240.565,0 c 10.422,13.07 16.691,29.599 16.692,47.612 0,15.635 -4.714,30.161 -12.768,42.275 0.147,0.225 0.349,0.392 0.485,0.627 0.972,1.683 1.45,3.495 1.698,5.317 l 229.635,0 c 0.24,-1.74 0.701,-3.438 1.544,-4.989 m 10.008,-90.842 c -11.351,12.644 -18.311,29.285 -18.312,47.612 0.001,14.474 4.335,27.911 11.737,39.158 0.655,-0.554 1.278,-1.137 2.046,-1.581 1.544,-0.893 3.198,-1.361 4.867,-1.641 l 0,-83.548 -0.338,0 z m 101.281,95.831 0,-85.419 c -4.071,-0.731 -7.826,-3.087 -10.057,-6.949 -0.641,-1.11 -1.107,-2.277 -1.43,-3.463 l -84.347,0 0,83.587 c 4.012,0.763 7.701,3.114 9.904,6.928 0.972,1.682 1.45,3.494 1.698,5.316 l 84.232,0 z m -371.069,0 c 0.592,-4.295 2.977,-8.307 7.022,-10.642 1.286,-0.744 2.647,-1.216 4.03,-1.533 l 0,-83.656 -83.803,0 c -0.972,3.575 -3.291,6.792 -6.752,8.791 l 0,0.001 c -1.672,0.965 -3.47,1.442 -5.28,1.693 l 0,85.346 84.783,0 z m -84.783,-455.851 0,85.152 c 4.281,0.6 8.277,2.983 10.607,7.017 0.678,1.173 1.161,2.408 1.484,3.665 l 83.744,0 0,-83.858 c -3.799,-0.873 -7.252,-3.216 -9.355,-6.857 -0.937,-1.622 -1.41,-3.364 -1.673,-5.119 l -84.807,0 z m 354.909,113.687 c -4.122,-0.7 -7.937,-3.062 -10.192,-6.964 -1.055,-1.825 -1.555,-3.801 -1.759,-5.779 l -240.66,0 c -0.449,0.46 -0.894,0.92 -1.354,1.37 l 0,250.673 c 0.638,0.624 1.241,1.278 1.857,1.924 l 249.518,0 c 0.843,-0.885 1.705,-1.747 2.59,-2.591 l 0,-238.633 z m -6.221,-25.796 c 0.459,-0.344 0.846,-0.754 1.355,-1.048 1.544,-0.893 3.197,-1.359 4.866,-1.64 l 0,-85.203 -0.285,0 c -11.383,12.65 -18.364,29.315 -18.365,47.669 0.001,14.93 4.595,28.766 12.429,40.222 m 11.33,-87.891 0,85.242 c 4.011,0.764 7.701,3.115 9.904,6.926 l 0.001,10e-4 c 0.677,1.174 1.16,2.408 1.482,3.665 l 84.447,0 0,-83.767 c -4.071,-0.731 -7.826,-3.086 -10.057,-6.947 l 0,-0.001 c -0.937,-1.622 -1.41,-3.364 -1.673,-5.119 l -84.104,0 z m 94.992,100.944 -83.333,0 c -0.255,2.434 -1.107,4.745 -2.523,6.774 11.11,7.137 24.289,11.325 38.48,11.325 18.212,-10e-4 34.762,-6.873 47.376,-18.099 m 23.999,306.688 c -0.001,-14.729 -4.466,-28.402 -12.11,-39.768 -0.42,0.307 -0.765,0.682 -1.225,0.948 l -1.277,-2.213 1.277,2.213 c -1.497,0.864 -3.097,1.329 -4.713,1.619 l 0,84.522 C 64.522,318.192 71.374,301.664 71.375,283.479 M 0,359.967 c -16.131,-10e-4 -31.075,-5.024 -43.413,-13.552 -2.185,1.182 -4.551,1.798 -6.89,1.797 -5.022,0.004 -9.919,-2.613 -12.614,-7.277 -0.76,-1.316 -1.23,-2.712 -1.545,-4.127 l -229.944,0 c -0.855,3.837 -3.198,7.332 -6.869,9.451 l 10e-4,10e-4 c -2.285,1.32 -4.797,1.953 -7.266,1.952 -2.696,0.002 -5.323,-0.805 -7.626,-2.224 -12.447,8.777 -27.595,13.978 -43.981,13.979 -42.237,-0.002 -76.483,-34.25 -76.485,-76.488 0,-16.575 5.331,-31.877 14.294,-44.404 -1.225,-2.218 -1.848,-4.629 -1.847,-7.008 -0.003,-5.023 2.614,-9.92 7.278,-12.613 l -0.001,0 c 1.327,-0.767 2.737,-1.236 4.165,-1.55 l 0,-228.462 c -3.851,-0.847 -7.362,-3.19 -9.489,-6.872 -1.32,-2.284 -1.954,-4.797 -1.953,-7.265 -0.002,-2.542 0.678,-5.046 1.945,-7.254 -9.021,-12.551 -14.392,-27.901 -14.392,-44.535 0.002,-42.235 34.249,-76.481 76.485,-76.483 16.485,0 31.713,5.27 44.203,14.144 0.043,-0.025 0.072,-0.064 0.116,-0.09 2.284,-1.319 4.796,-1.952 7.265,-1.951 5.022,-0.004 9.92,2.613 12.615,7.278 l -0.023,-0.04 0.023,0.04 c 0.795,1.377 1.261,2.84 1.569,4.324 l 239.116,0 c 13.927,-14.578 33.512,-23.704 55.263,-23.705 16.337,0 31.446,5.168 43.874,13.896 2.183,-1.179 4.545,-1.794 6.879,-1.793 5.023,-0.004 9.92,2.614 12.613,7.279 1.321,2.285 1.954,4.797 1.953,7.266 10e-4,2.492 -0.648,4.951 -1.867,7.128 8.226,12.197 13.031,26.891 13.032,42.707 -10e-4,21.484 -8.891,40.87 -23.157,54.764 l 0,239.553 c 4.064,0.734 7.813,3.09 10.039,6.946 1.32,2.284 1.954,4.798 1.953,7.267 0.002,2.822 -0.903,5.556 -2.455,7.931 8.568,12.355 13.619,27.331 13.62,43.502 C 76.482,325.717 42.235,359.965 0,359.967"
             style="fill:#231f20;fill-opacity:1;fill-rule:nonzero;stroke:none"
             id="path3375"
             inkscape:connector-curvature="0" /></g><g
           id="g3377"
           transform="translate(136.4429,600.5483)"><path
             d="m 0,0 c 5.738,-3.311 7.704,-10.652 4.392,-16.389 -3.313,-5.738 -10.652,-7.705 -16.391,-4.391 -5.736,3.311 -7.703,10.652 -4.39,16.39 C -13.076,1.347 -5.737,3.314 0,0"
             style="fill:#ffffff;fill-opacity:1;fill-rule:evenodd;stroke:none"
             id="path3379"
             inkscape:connector-curvature="0" /></g><g
           id="g3381"
           transform="translate(237.522,498.9463)"><path
             d="m 0,0 c 5.738,-3.314 7.704,-10.651 4.392,-16.389 -3.313,-5.738 -10.653,-7.705 -16.391,-4.39 -5.736,3.31 -7.702,10.651 -4.39,16.385 C -13.076,1.348 -5.737,3.311 0,0"
             style="fill:#ffffff;fill-opacity:1;fill-rule:evenodd;stroke:none"
             id="path3383"
             inkscape:connector-curvature="0" /></g><g
           id="g3385"
           transform="translate(596.8369,600.5483)"><path
             d="M 0,0 C 5.741,-3.311 7.705,-10.652 4.391,-16.389 1.08,-22.127 -6.258,-24.094 -11.995,-20.78 -17.737,-17.469 -19.7,-10.128 -16.39,-4.39 -13.075,1.347 -5.737,3.314 0,0"
             style="fill:#ffffff;fill-opacity:1;fill-rule:evenodd;stroke:none"
             id="path3387"
             inkscape:connector-curvature="0" /></g><g
           id="g3389"
           transform="translate(495.7593,498.9463)"><path
             d="m 0,0 c 5.737,-3.314 7.701,-10.651 4.391,-16.389 -3.315,-5.738 -10.653,-7.705 -16.39,-4.39 -5.738,3.31 -7.705,10.651 -4.391,16.385 C -13.075,1.348 -5.738,3.311 0,0"
             style="fill:#ffffff;fill-opacity:1;fill-rule:evenodd;stroke:none"
             id="path3391"
             inkscape:connector-curvature="0" /></g><g
           id="g3393"
           transform="translate(237.522,242.1826)"><path
             d="m 0,0 c 5.738,-3.312 7.704,-10.65 4.392,-16.389 -3.313,-5.736 -10.653,-7.703 -16.391,-4.39 -5.736,3.313 -7.702,10.652 -4.39,16.388 C -13.076,1.348 -5.737,3.313 0,0"
             style="fill:#ffffff;fill-opacity:1;fill-rule:evenodd;stroke:none"
             id="path3395"
             inkscape:connector-curvature="0" /></g><g
           id="g3397"
           transform="translate(136.4429,140.5801)"><path
             d="m 0,0 c 5.738,-3.312 7.704,-10.65 4.392,-16.389 -3.313,-5.736 -10.652,-7.703 -16.391,-4.39 -5.736,3.311 -7.703,10.652 -4.39,16.388 C -13.076,1.348 -5.737,3.313 0,0"
             style="fill:#ffffff;fill-opacity:1;fill-rule:evenodd;stroke:none"
             id="path3399"
             inkscape:connector-curvature="0" /></g><g
           id="g3401"
           transform="translate(596.8369,242.1826)"><path
             d="m 0,0 c 5.741,-3.312 7.705,-10.65 4.391,-16.389 -3.311,-5.736 -10.649,-7.703 -16.386,-4.39 -5.742,3.313 -7.705,10.652 -4.395,16.388 C -13.075,1.348 -5.737,3.313 0,0"
             style="fill:#ffffff;fill-opacity:1;fill-rule:evenodd;stroke:none"
             id="path3403"
             inkscape:connector-curvature="0" /></g><g
           id="g3405"
           transform="translate(495.7593,140.5801)"><path
             d="m 0,0 c 5.737,-3.312 7.701,-10.65 4.391,-16.389 -3.315,-5.736 -10.653,-7.703 -16.39,-4.39 -5.738,3.311 -7.705,10.652 -4.391,16.388 C -13.075,1.348 -5.738,3.313 0,0"
             style="fill:#ffffff;fill-opacity:1;fill-rule:evenodd;stroke:none"
             id="path3407"
             inkscape:connector-curvature="0" /></g><g
           id="g3409"
           transform="translate(136.4429,600.5483)"><path
             d="m 0,0 1.276,2.212 c 4.666,-2.692 7.283,-7.591 7.279,-12.614 10e-4,-2.469 -0.632,-4.981 -1.951,-7.265 -2.694,-4.665 -7.591,-7.281 -12.614,-7.278 -2.469,-0.001 -4.982,0.632 -7.266,1.953 l 10e-4,-10e-4 c -4.665,2.693 -7.282,7.591 -7.278,12.615 -10e-4,2.468 0.632,4.981 1.951,7.265 2.695,4.664 7.592,7.281 12.614,7.278 2.469,0.001 4.982,-0.633 7.266,-1.953 l -0.002,0 L 0,0 -1.278,-2.212 c -1.494,0.862 -3.107,1.266 -4.71,1.267 -3.269,-0.003 -6.439,-1.691 -8.189,-4.723 -0.862,-1.495 -1.266,-3.107 -1.267,-4.71 0.004,-3.272 1.692,-6.441 4.722,-8.189 l 10e-4,-0.001 c 1.495,-0.863 3.108,-1.266 4.711,-1.267 3.27,0.003 6.44,1.69 8.189,4.723 0.862,1.493 1.266,3.107 1.267,4.71 -0.004,3.271 -1.691,6.441 -4.723,8.189 L -1.278,-2.212 0,0 Z"
             style="fill:#231f20;fill-opacity:1;fill-rule:nonzero;stroke:none"
             id="path3411"
             inkscape:connector-curvature="0" /></g><g
           id="g3413"
           transform="translate(237.5215,498.9463)"><path
             d="m 0,0 1.278,2.212 c 4.664,-2.695 7.281,-7.592 7.277,-12.615 10e-4,-2.468 -0.631,-4.98 -1.95,-7.264 -2.695,-4.664 -7.592,-7.281 -12.615,-7.278 -2.469,-0.001 -4.982,0.633 -7.266,1.953 l 10e-4,0 c -4.665,2.693 -7.281,7.592 -7.277,12.613 -0.001,2.468 0.631,4.98 1.951,7.263 2.694,4.667 7.592,7.283 12.615,7.279 2.467,0.002 4.98,-0.631 7.263,-1.95 L 0,0 -1.277,-2.212 c -1.494,0.861 -3.107,1.265 -4.709,1.266 -3.271,-0.004 -6.44,-1.69 -8.19,-4.724 -0.862,-1.495 -1.266,-3.106 -1.267,-4.709 0.004,-3.27 1.691,-6.44 4.722,-8.187 l 10e-4,-0.001 c 1.494,-0.863 3.107,-1.267 4.71,-1.268 3.27,0.003 6.44,1.69 8.19,4.723 0.861,1.494 1.265,3.106 1.266,4.709 -0.004,3.271 -1.691,6.44 -4.724,8.191 L 0,0 Z"
             style="fill:#231f20;fill-opacity:1;fill-rule:nonzero;stroke:none"
             id="path3415"
             inkscape:connector-curvature="0" /></g><g
           id="g3417"
           transform="translate(596.8369,600.5483)"><path
             d="m 0,0 1.276,2.213 c 4.667,-2.692 7.284,-7.59 7.28,-12.612 0.001,-2.47 -0.633,-4.984 -1.953,-7.268 -2.692,-4.665 -7.589,-7.282 -12.611,-7.278 -2.468,-0.001 -4.981,0.632 -7.265,1.953 -4.667,2.692 -7.284,7.591 -7.28,12.614 -10e-4,2.468 0.632,4.981 1.951,7.264 2.695,4.665 7.592,7.282 12.614,7.279 2.469,0.001 4.982,-0.633 7.266,-1.953 L 0,0 -1.278,-2.212 c -1.494,0.862 -3.107,1.266 -4.71,1.267 -3.269,-0.003 -6.439,-1.691 -8.189,-4.723 -0.861,-1.494 -1.265,-3.107 -1.266,-4.71 0.004,-3.272 1.69,-6.441 4.724,-8.189 1.496,-0.864 3.108,-1.267 4.711,-1.268 3.27,0.003 6.438,1.69 8.186,4.722 0.863,1.496 1.267,3.11 1.268,4.714 -0.004,3.27 -1.689,6.438 -4.722,8.186 L 0,0 Z"
             style="fill:#231f20;fill-opacity:1;fill-rule:nonzero;stroke:none"
             id="path3419"
             inkscape:connector-curvature="0" /></g><g
           id="g3421"
           transform="translate(497.9375,483.8345)"><path
             d="m 0,0 c -1.75,-3.033 -4.92,-4.72 -8.19,-4.724 -1.602,0.002 -3.215,0.406 -4.71,1.269 -3.032,1.748 -4.72,4.918 -4.724,8.187 0.002,1.603 0.406,3.215 1.269,4.709 1.751,3.035 4.919,4.721 8.19,4.725 1.603,-0.001 3.215,-0.405 4.709,-1.267 C -0.424,11.147 1.262,7.979 1.266,4.71 1.265,3.107 0.861,1.494 0,0 m -0.9,17.324 -1.278,-2.212 1.277,2.213 c -2.284,1.319 -4.796,1.951 -7.264,1.95 -5.023,0.004 -9.92,-2.612 -12.615,-7.278 -1.321,-2.284 -1.954,-4.796 -1.952,-7.265 -0.004,-5.022 2.612,-9.919 7.276,-12.612 2.285,-1.321 4.798,-1.954 7.266,-1.953 5.023,-0.003 9.919,2.614 12.615,7.279 1.319,2.283 1.951,4.796 1.95,7.264 0.004,5.021 -2.611,9.919 -7.275,12.614"
             style="fill:#231f20;fill-opacity:1;fill-rule:nonzero;stroke:none"
             id="path3423"
             inkscape:connector-curvature="0" /></g><g
           id="g3425"
           transform="translate(237.5215,242.1826)"><path
             d="m 0,0 1.277,2.213 c 4.666,-2.694 7.282,-7.592 7.278,-12.615 10e-4,-2.468 -0.631,-4.981 -1.95,-7.264 -2.696,-4.665 -7.593,-7.281 -12.616,-7.276 -2.468,-0.002 -4.981,0.63 -7.264,1.95 -4.665,2.695 -7.281,7.593 -7.277,12.615 -0.001,2.468 0.631,4.981 1.95,7.264 2.695,4.665 7.592,7.281 12.615,7.278 2.468,0 4.981,-0.633 7.265,-1.953 L 0,0 -1.277,-2.213 c -1.495,0.862 -3.108,1.267 -4.71,1.268 -3.271,-0.004 -6.44,-1.691 -8.189,-4.723 -0.862,-1.494 -1.266,-3.106 -1.267,-4.709 0.004,-3.27 1.691,-6.44 4.723,-8.19 1.493,-0.862 3.106,-1.266 4.709,-1.267 3.271,0.004 6.441,1.691 8.191,4.723 0.861,1.493 1.265,3.106 1.266,4.709 -0.004,3.271 -1.691,6.441 -4.723,8.189 L 0,0 Z"
             style="fill:#231f20;fill-opacity:1;fill-rule:nonzero;stroke:none"
             id="path3427"
             inkscape:connector-curvature="0" /></g><g
           id="g3429"
           transform="translate(136.4429,140.5801)"><path
             d="m 0,0 1.277,2.213 c 4.665,-2.694 7.282,-7.592 7.278,-12.614 10e-4,-2.469 -0.632,-4.981 -1.951,-7.265 -2.695,-4.664 -7.592,-7.281 -12.615,-7.277 -2.468,-10e-4 -4.981,0.631 -7.265,1.951 -4.664,2.694 -7.281,7.592 -7.277,12.614 -10e-4,2.469 0.632,4.982 1.952,7.266 2.694,4.664 7.591,7.28 12.613,7.277 2.469,0.001 4.982,-0.633 7.265,-1.952 L 0,0 -1.278,-2.212 c -1.494,0.862 -3.107,1.266 -4.71,1.268 -3.269,-0.004 -6.439,-1.692 -8.188,-4.724 -0.863,-1.494 -1.267,-3.106 -1.268,-4.71 0.004,-3.27 1.692,-6.44 4.723,-8.188 1.494,-0.863 3.107,-1.267 4.71,-1.268 3.271,0.004 6.441,1.69 8.19,4.724 0.862,1.493 1.266,3.105 1.267,4.709 -0.004,3.27 -1.691,6.44 -4.723,8.189 L 0,0 Z"
             style="fill:#231f20;fill-opacity:1;fill-rule:nonzero;stroke:none"
             id="path3431"
             inkscape:connector-curvature="0" /></g><g
           id="g3433"
           transform="translate(596.8369,242.1826)"><path
             d="m 0,0 1.276,2.213 c 4.667,-2.692 7.284,-7.59 7.28,-12.611 0.001,-2.47 -0.633,-4.984 -1.953,-7.269 -2.693,-4.664 -7.59,-7.28 -12.612,-7.275 -2.468,-0.002 -4.98,0.63 -7.263,1.95 -4.668,2.694 -7.285,7.593 -7.281,12.615 -10e-4,2.468 0.632,4.981 1.951,7.264 2.695,4.665 7.592,7.281 12.614,7.278 2.468,0 4.981,-0.633 7.265,-1.953 L 0,0 -1.277,-2.213 c -1.495,0.862 -3.108,1.267 -4.711,1.268 -3.27,-0.004 -6.439,-1.691 -8.189,-4.723 -0.861,-1.494 -1.265,-3.106 -1.266,-4.709 0.004,-3.27 1.69,-6.439 4.725,-8.19 1.494,-0.862 3.106,-1.266 4.709,-1.267 3.27,0.004 6.439,1.69 8.187,4.722 0.863,1.496 1.267,3.11 1.268,4.714 -0.004,3.269 -1.689,6.437 -4.722,8.185 L 0,0 Z"
             style="fill:#231f20;fill-opacity:1;fill-rule:nonzero;stroke:none"
             id="path3435"
             inkscape:connector-curvature="0" /></g><g
           id="g3437"
           transform="translate(495.7593,140.5801)"><path
             d="m 0,0 1.277,2.213 c 4.665,-2.694 7.28,-7.592 7.276,-12.614 10e-4,-2.468 -0.631,-4.981 -1.95,-7.264 l 0,-0.002 c -2.696,-4.663 -7.593,-7.28 -12.616,-7.276 -2.467,-10e-4 -4.98,0.631 -7.264,1.951 -4.664,2.693 -7.281,7.592 -7.277,12.614 -0.002,2.469 0.632,4.982 1.952,7.266 2.695,4.664 7.592,7.28 12.614,7.277 2.468,0.001 4.981,-0.633 7.265,-1.952 L 0,0 -1.278,-2.212 c -1.494,0.862 -3.107,1.266 -4.71,1.268 -3.27,-0.004 -6.439,-1.692 -8.189,-4.724 -0.863,-1.494 -1.267,-3.106 -1.268,-4.71 0.004,-3.27 1.691,-6.44 4.723,-8.188 1.494,-0.863 3.107,-1.267 4.709,-1.268 3.271,0.004 6.44,1.69 8.191,4.724 l -10e-4,-0.002 c 0.862,1.495 1.266,3.108 1.267,4.711 -0.004,3.272 -1.69,6.44 -4.721,8.189 L 0,0 Z"
             style="fill:#231f20;fill-opacity:1;fill-rule:nonzero;stroke:none"
             id="path3439"
             inkscape:connector-curvature="0" /></g></g></g><flowRoot
       xml:space="preserve"
       id="flowRoot3441"
       style="font-style:normal;font-weight:normal;font-size:20px;line-height:125%;font-family:sans-serif;letter-spacing:0px;word-spacing:0px;fill:#000000;fill-opacity:1;stroke:none;stroke-width:1px;stroke-linecap:butt;stroke-linejoin:miter;stroke-opacity:1"
       transform="matrix(0.8,0,0,-0.8,157.47551,636.16975)"><flowRegion
         id="flowRegion3443"><rect
           id="rect3445"
           width="262.4592"
           height="236.99673"
           x="-151.79543"
           y="85.201309" /></flowRegion><flowPara
         id="flowPara3447"
         style="font-size:35px">A,B</flowPara></flowRoot><flowRoot
       xml:space="preserve"
       id="flowRoot3449"
       style="fill:black;stroke:none;stroke-opacity:1;stroke-width:1px;stroke-linejoin:miter;stroke-linecap:butt;fill-opacity:1;font-family:sans-serif;font-style:normal;font-weight:normal;font-size:20px;line-height:125%;letter-spacing:0px;word-spacing:0px"><flowRegion
         id="flowRegion3451"><rect
           id="rect3453"
           width="203.69968"
           height="85.201309"
           x="-170.40262"
           y="-5.8759522" /></flowRegion><flowPara
         id="flowPara3455"></flowPara></flowRoot><flowRoot
       xml:space="preserve"
       id="flowRoot3457"
       style="font-style:normal;font-weight:normal;font-size:35px;line-height:125%;font-family:sans-serif;letter-spacing:0px;word-spacing:0px;fill:#000000;fill-opacity:1;stroke:none;stroke-width:1px;stroke-linecap:butt;stroke-linejoin:miter;stroke-opacity:1"
       transform="matrix(0.8,0,0,-0.8,700.41349,204.48314)"><flowRegion
         id="flowRegion3459"><rect
           id="rect3461"
           width="152.77475"
           height="180.19586"
           x="-83.242653"
           y="11.751904"
           style="font-size:35px" /></flowRegion><flowPara
         id="flowPara3463">A',B'</flowPara></flowRoot><flowRoot
       xml:space="preserve"
       id="flowRoot3465"
       style="font-style:normal;font-weight:normal;font-size:35px;line-height:125%;font-family:sans-serif;letter-spacing:0px;word-spacing:0px;fill:#000000;fill-opacity:1;stroke:none;stroke-width:1px;stroke-linecap:butt;stroke-linejoin:miter;stroke-opacity:1"
       transform="matrix(0.8,0,0,-0.8,738.01959,702.76388)"><flowRegion
         id="flowRegion3467"><rect
           id="rect3469"
           width="209.57562"
           height="210.55495"
           x="-129.27095"
           y="176.27856"
           style="font-size:35px" /></flowRegion><flowPara
         id="flowPara3471">A',B</flowPara></flowRoot><flowRoot
       xml:space="preserve"
       id="flowRoot3473"
       style="font-style:normal;font-weight:normal;font-size:35px;line-height:125%;font-family:sans-serif;letter-spacing:0px;word-spacing:0px;fill:#000000;fill-opacity:1;stroke:none;stroke-width:1px;stroke-linecap:butt;stroke-linejoin:miter;stroke-opacity:1"
       transform="matrix(0.8,0,0,-0.8,182.54624,389.37977)"><flowRegion
         id="flowRegion3475"><rect
           id="rect3477"
           width="193.90642"
           height="200.7617"
           x="-181.17519"
           y="239.93471"
           style="font-size:35px" /></flowRegion><flowPara
         id="flowPara3479">A,B'</flowPara></flowRoot><flowRoot
       xml:space="preserve"
       id="flowRoot3481"
       style="font-style:normal;font-weight:normal;font-size:20px;line-height:125%;font-family:sans-serif;letter-spacing:0px;word-spacing:0px;fill:#000000;fill-opacity:1;stroke:none;stroke-width:1px;stroke-linecap:butt;stroke-linejoin:miter;stroke-opacity:1"
       transform="matrix(0.8,0,0,-0.8,396.4309,856.32209)"><flowRegion
         id="flowRegion3483"><rect
           id="rect3485"
           width="139.06419"
           height="117.51904"
           x="-190.96844"
           y="296.7356" /></flowRegion><flowPara
         id="flowPara3487">(1,0)</flowPara></flowRoot><flowRoot
       xml:space="preserve"
       id="flowRoot3489"
       style="font-style:normal;font-weight:normal;font-size:20px;line-height:125%;font-family:sans-serif;letter-spacing:0px;word-spacing:0px;fill:#000000;fill-opacity:1;stroke:none;stroke-width:1px;stroke-linecap:butt;stroke-linejoin:miter;stroke-opacity:1"
       transform="matrix(0.8,0,0,-0.8,375.27748,857.889)"><flowRegion
         id="flowRegion3491"><rect
           id="rect3493"
           width="153.75407"
           height="130.25027"
           x="-159.63004"
           y="468.11752" /></flowRegion><flowPara
         id="flowPara3495">(1,1)</flowPara></flowRoot><flowRoot
       xml:space="preserve"
       id="flowRoot3497"
       style="font-style:normal;font-weight:normal;font-size:20px;line-height:125%;font-family:sans-serif;letter-spacing:0px;word-spacing:0px;fill:#000000;fill-opacity:1;stroke:none;stroke-width:1px;stroke-linecap:butt;stroke-linejoin:miter;stroke-opacity:1"
       transform="matrix(0.8,0,0,-0.8,176.27857,883.7432)"><flowRegion
         id="flowRegion3499"><rect
           id="rect3501"
           width="138.08487"
           height="131.2296"
           x="-123.395"
           y="332.97061" /></flowRegion><flowPara
         id="flowPara3503">(0,0)</flowPara></flowRoot><flowRoot
       xml:space="preserve"
       id="flowRoot3505"
       style="font-style:normal;font-weight:normal;font-size:20px;line-height:125%;font-family:sans-serif;letter-spacing:0px;word-spacing:0px;fill:#000000;fill-opacity:1;stroke:none;stroke-width:1px;stroke-linecap:butt;stroke-linejoin:miter;stroke-opacity:1"
       transform="matrix(0.8,0,0,-0.8,134.75517,927.61692)"><flowRegion
         id="flowRegion3507"><rect
           id="rect3509"
           width="80.30468"
           height="181.17519"
           x="-73.449402"
           y="554.29816" /></flowRegion><flowPara
         id="flowPara3511">(0,1)</flowPara></flowRoot><flowRoot
       style="font-style:normal;font-weight:normal;font-size:20px;line-height:125%;font-family:sans-serif;letter-spacing:0px;word-spacing:0px;fill:#000000;fill-opacity:1;stroke:none;stroke-width:1px;stroke-linecap:butt;stroke-linejoin:miter;stroke-opacity:1"
       id="flowRoot3533"
       xml:space="preserve"
       transform="matrix(0.8,0,0,-0.8,199.78237,626.76822)"><flowRegion
         id="flowRegion3535"><rect
           y="468.11752"
           x="-159.63004"
           height="130.25027"
           width="153.75407"
           id="rect3537" /></flowRegion><flowPara
         id="flowPara3539">(1,1)</flowPara></flowRoot><flowRoot
       style="font-style:normal;font-weight:normal;font-size:20px;line-height:125%;font-family:sans-serif;letter-spacing:0px;word-spacing:0px;fill:#000000;fill-opacity:1;stroke:none;stroke-width:1px;stroke-linecap:butt;stroke-linejoin:miter;stroke-opacity:1"
       id="flowRoot3541"
       xml:space="preserve"
       transform="matrix(0.8,0,0,-0.8,225.63655,364.30903)"><flowRegion
         id="flowRegion3543"><rect
           y="296.7356"
           x="-190.96844"
           height="117.51904"
           width="139.06419"
           id="rect3545" /></flowRegion><flowPara
         id="flowPara3547">(1,0)</flowPara></flowRoot><flowRoot
       style="font-style:normal;font-weight:normal;font-size:20px;line-height:125%;font-family:sans-serif;letter-spacing:0px;word-spacing:0px;fill:#000000;fill-opacity:1;stroke:none;stroke-width:1px;stroke-linecap:butt;stroke-linejoin:miter;stroke-opacity:1"
       id="flowRoot3549"
       xml:space="preserve"
       transform="matrix(0.8,0,0,-0.8,306.33297,699.62998)"><flowRegion
         id="flowRegion3551"><rect
           y="554.29816"
           x="-73.449402"
           height="181.17519"
           width="80.30468"
           id="rect3553" /></flowRegion><flowPara
         id="flowPara3555">(0,1)</flowPara></flowRoot><flowRoot
       style="font-style:normal;font-weight:normal;font-size:20px;line-height:125%;font-family:sans-serif;letter-spacing:0px;word-spacing:0px;fill:#000000;fill-opacity:1;stroke:none;stroke-width:1px;stroke-linecap:butt;stroke-linejoin:miter;stroke-opacity:1"
       id="flowRoot3557"
       xml:space="preserve"
       transform="matrix(0.8,0,0,-0.8,343.93907,387.81284)"><flowRegion
         id="flowRegion3559"><rect
           y="332.97061"
           x="-123.395"
           height="131.2296"
           width="138.08487"
           id="rect3561" /></flowRegion><flowPara
         id="flowPara3563">(0,0)</flowPara></flowRoot><flowRoot
       xml:space="preserve"
       id="flowRoot3565"
       style="font-style:normal;font-weight:normal;font-size:20px;line-height:125%;font-family:sans-serif;letter-spacing:0px;word-spacing:0px;fill:#000000;fill-opacity:1;stroke:none;stroke-width:1px;stroke-linecap:butt;stroke-linejoin:miter;stroke-opacity:1"
       transform="matrix(0.8,0,0,-0.8,730.18499,498.28072)"><flowRegion
         id="flowRegion3567"><rect
           id="rect3569"
           width="153.75407"
           height="130.25027"
           x="-159.63004"
           y="468.11752" /></flowRegion><flowPara
         id="flowPara3571">(1,1)</flowPara></flowRoot><flowRoot
       xml:space="preserve"
       id="flowRoot3573"
       style="font-style:normal;font-weight:normal;font-size:20px;line-height:125%;font-family:sans-serif;letter-spacing:0px;word-spacing:0px;fill:#000000;fill-opacity:1;stroke:none;stroke-width:1px;stroke-linecap:butt;stroke-linejoin:miter;stroke-opacity:1"
       transform="matrix(0.8,0,0,-0.8,499.0642,567.22519)"><flowRegion
         id="flowRegion3575"><rect
           id="rect3577"
           width="80.30468"
           height="181.17519"
           x="-73.449402"
           y="554.29816" /></flowRegion><flowPara
         id="flowPara3579">(0,1)</flowPara></flowRoot><flowRoot
       transform="matrix(0.8,0,0,-0.8,538.23722,524.13493)"
       xml:space="preserve"
       id="flowRoot3581"
       style="font-style:normal;font-weight:normal;font-size:20px;line-height:125%;font-family:sans-serif;letter-spacing:0px;word-spacing:0px;fill:#000000;fill-opacity:1;stroke:none;stroke-width:1px;stroke-linecap:butt;stroke-linejoin:miter;stroke-opacity:1"><flowRegion
         id="flowRegion3583"><rect
           id="rect3585"
           width="138.08487"
           height="131.2296"
           x="-123.395"
           y="332.97061" /></flowRegion><flowPara
         id="flowPara3587">(0,0)</flowPara></flowRoot><flowRoot
       xml:space="preserve"
       id="flowRoot3597"
       style="font-style:normal;font-weight:normal;font-size:20px;line-height:125%;font-family:sans-serif;letter-spacing:0px;word-spacing:0px;fill:#000000;fill-opacity:1;stroke:none;stroke-width:1px;stroke-linecap:butt;stroke-linejoin:miter;stroke-opacity:1"
       transform="matrix(0.8,0,0,-0.8,759.173,492.79652)"><flowRegion
         id="flowRegion3599"><rect
           id="rect3601"
           width="139.06419"
           height="117.51904"
           x="-190.96844"
           y="296.7356" /></flowRegion><flowPara
         id="flowPara3603">(1,0)</flowPara></flowRoot><flowRoot
       style="font-style:normal;font-weight:normal;font-size:20px;line-height:125%;font-family:sans-serif;letter-spacing:0px;word-spacing:0px;fill:#000000;fill-opacity:1;stroke:none;stroke-width:1px;stroke-linecap:butt;stroke-linejoin:miter;stroke-opacity:1"
       id="flowRoot3605"
       xml:space="preserve"
       transform="matrix(0.8,0,0,-0.8,700.4135,745.07073)"><flowRegion
         id="flowRegion3607"><rect
           y="332.97061"
           x="-123.395"
           height="131.2296"
           width="138.08487"
           id="rect3609" /></flowRegion><flowPara
         id="flowPara3611">(0,0)</flowPara></flowRoot><flowRoot
       transform="matrix(0.8,0,0,-0.8,566.44179,988.72686)"
       style="font-style:normal;font-weight:normal;font-size:20px;line-height:125%;font-family:sans-serif;letter-spacing:0px;word-spacing:0px;fill:#000000;fill-opacity:1;stroke:none;stroke-width:1px;stroke-linecap:butt;stroke-linejoin:miter;stroke-opacity:1"
       id="flowRoot3632"
       xml:space="preserve"><flowRegion
         id="flowRegion3634"><rect
           y="468.11752"
           x="-159.63004"
           height="130.25027"
           width="153.75407"
           id="rect3636" /></flowRegion><flowPara
         id="flowPara3638">(1,1)</flowPara></flowRoot><flowRoot
       style="font-style:normal;font-weight:normal;font-size:20px;line-height:125%;font-family:sans-serif;letter-spacing:0px;word-spacing:0px;fill:#000000;fill-opacity:1;stroke:none;stroke-width:1px;stroke-linecap:butt;stroke-linejoin:miter;stroke-opacity:1"
       id="flowRoot3640"
       xml:space="preserve"
       transform="matrix(0.8,0,0,-0.8,667.50816,1055.3209)"><flowRegion
         id="flowRegion3642"><rect
           y="554.29816"
           x="-73.449402"
           height="181.17519"
           width="80.30468"
           id="rect3644" /></flowRegion><flowPara
         id="flowPara3646">(0,1)</flowPara></flowRoot><flowRoot
       style="font-style:normal;font-weight:normal;font-size:20px;line-height:125%;font-family:sans-serif;letter-spacing:0px;word-spacing:0px;fill:#000000;fill-opacity:1;stroke:none;stroke-width:1px;stroke-linecap:butt;stroke-linejoin:miter;stroke-opacity:1"
       id="flowRoot3648"
       xml:space="preserve"
       transform="matrix(0.8,0,0,-0.8,592.29596,720.78346)"><flowRegion
         id="flowRegion3650"><rect
           y="296.7356"
           x="-190.96844"
           height="117.51904"
           width="139.06419"
           id="rect3652" /></flowRegion><flowPara
         id="flowPara3654">(1,0)</flowPara></flowRoot></g></svg>